<?xml version="1.0" encoding="UTF-8"?>
<svg xmlns="http://www.w3.org/2000/svg" height="437pt" viewBox="0 -34 437.15315 437" width="437pt"> <path d="m355.144531 225.355469c0-75.40625-61.125-136.53125-136.53125-136.53125-75.410156 0-136.535156 61.125-136.535156 136.53125s61.128906 136.535156 136.535156 136.535156c75.402344 0 136.53125-61.125 136.53125-136.535156" fill="#fff"/> <path d="m218.613281 368.714844c-79.050781 0-143.363281-64.308594-143.363281-143.359375s64.3125-143.359375 143.363281-143.359375c79.046875 0 143.359375 64.3125 143.359375 143.359375 0 79.050781-64.3125 143.359375-143.359375 143.359375m0-273.066406c-71.519531 0-129.707031 58.1875-129.707031 129.707031s58.1875 129.707031 129.707031 129.707031 129.703125-58.1875 129.703125-129.707031-58.183594-129.707031-129.703125-129.707031" fill="#54596e"/> <path d="m327.800781 155.414062c4.441407 13.410157 6.863281 27.734376 6.863281 42.636719 0 75.40625-61.125 136.53125-136.53125 136.53125-28.691406 0-55.28125-8.878906-77.238281-24.015625 23.796875 27.253906 58.78125 44.496094 97.71875 44.496094 71.519531 0 129.703125-58.1875 129.703125-129.707031 0-25.734375-7.535156-49.746094-20.515625-69.941407" fill="#dddee2"/> <g fill="#54596e"> <path d="m316.679688 130.488281c4.488281 7.859375 8.234374 16.199219 11.121093 24.925781 12.980469 20.191407 20.515625 44.203126 20.515625 69.941407 0 71.519531-58.183594 129.707031-129.703125 129.707031-38.9375 0-73.921875-17.242188-97.71875-44.5-7.519531-5.183594-14.496093-11.101562-20.828125-17.648438 23.511719 41.167969 67.742188 68.976563 118.546875 68.976563 75.40625 0 136.53125-61.125 136.53125-136.535156 0-36.886719-14.691406-70.296875-38.464843-94.867188"/> <path d="m50.289062 279.675781c-44.390624 0-49.246093-6.007812-50.105468-12.757812-.847656-6.621094-2.007813-15.6875 78.621094-32.691407 3.703124-.789062 7.3125 1.578126 8.089843 5.269532.777344 3.691406-1.585937 7.3125-5.269531 8.089844-36.695312 7.734374-53.945312 13.488281-61.929688 16.921874 23.339844 3.484376 95.25 1.507813 200.644532-11.957031 105.386718-13.460937 175.488281-29.632812 197.207031-38.875-8.429687-1.289062-26.054687-2.488281-62.101563-.902343-3.734374.035156-6.953124-2.75-7.121093-6.515626-.167969-3.765624 2.75-6.957031 6.515625-7.125 80.222656-3.53125 81.367187 5.421876 82.203125 11.972657.980469 7.675781-3.289063 15.734375-65.421875 29.804687-39.695313 8.996094-92.804688 17.9375-149.546875 25.183594-56.75 7.253906-110.402344 11.949219-151.082031 13.226562-7.710938.242188-14.585938.355469-20.703126.355469zm0 0"/> <path d="m150.34375 194.636719c0 5.65625-4.582031 10.238281-10.238281 10.238281s-10.242188-4.582031-10.242188-10.238281 4.585938-10.238281 10.242188-10.238281 10.238281 4.582031 10.238281 10.238281zm0 0"/> <path d="m273.226562 180.984375c0 5.652344-4.585937 10.238281-10.242187 10.238281s-10.238281-4.585937-10.238281-10.238281c0-5.65625 4.582031-10.242187 10.238281-10.242187s10.242187 4.585937 10.242187 10.242187zm0 0"/> <path d="m182.898438 222.636719c2.164062 11.097656 12.914062 18.347656 24.019531 16.183593 11.097656-2.164062 18.347656-12.917968 16.183593-24.019531zm0 0"/> <path d="m202.992188 246.027344c-12.800782 0-24.257813-9.0625-26.792969-22.082032l-1.308594-6.707031 53.605469-10.441406 1.304687 6.699219c1.398438 7.160156-.078125 14.433594-4.15625 20.480468-4.078125 6.050782-10.265625 10.148438-17.417969 11.542969-1.757812.34375-3.507812.507813-5.234374.507813zm-10.289063-18.347656c3.101563 3.550781 7.964844 5.386718 12.90625 4.441406 4.949219-.96875 8.757813-4.507813 10.296875-8.960938zm0 0"/> </g> <path d="m102.558594 47.863281c0 22.621094-18.339844 40.960938-40.960938 40.960938s-40.960937-18.339844-40.960937-40.960938c0-22.621093 18.339843-40.960937 40.960937-40.960937s40.960938 18.339844 40.960938 40.960937zm0 0" fill="#a1b7ff"/> <path d="m61.597656 95.648438c-26.347656 0-47.785156-21.4375-47.785156-47.785157 0-26.347656 21.4375-47.785156 47.785156-47.785156 26.351563 0 47.789063 21.4375 47.789063 47.785156 0 26.347657-21.4375 47.785157-47.789063 47.785157zm0-81.917969c-18.820312 0-34.132812 15.3125-34.132812 34.132812 0 18.820313 15.3125 34.132813 34.132812 34.132813 18.820313 0 34.132813-15.3125 34.132813-34.132813 0-18.820312-15.3125-34.132812-34.132813-34.132812zm0 0" fill="#54596e"/> <path d="m334.664062 245.835938c0 15.082031-12.226562 27.308593-27.304687 27.308593-15.082031 0-27.308594-12.226562-27.308594-27.308593 0-15.082032 12.226563-27.304688 27.308594-27.304688 15.078125 0 27.304687 12.222656 27.304687 27.304688zm0 0" fill="#fff35f"/> <path d="m307.359375 279.96875c-18.820313 0-34.132813-15.3125-34.132813-34.132812 0-18.820313 15.3125-34.132813 34.132813-34.132813 18.816406 0 34.132813 15.3125 34.132813 34.132813 0 18.820312-15.316407 34.132812-34.132813 34.132812zm0-54.613281c-11.292969 0-20.480469 9.1875-20.480469 20.480469 0 11.292968 9.1875 20.480468 20.480469 20.480468s20.480469-9.1875 20.480469-20.480468c0-11.292969-9.1875-20.480469-20.480469-20.480469zm0 0" fill="#54596e"/> </svg>